<?xml version="1.0" standalone="no"?><!DOCTYPE svg PUBLIC "-//W3C//DTD SVG 1.1//EN" "http://www.w3.org/Graphics/SVG/1.1/DTD/svg11.dtd"><svg t="1775296800537" class="icon" viewBox="0 0 1024 1024" version="1.1" xmlns="http://www.w3.org/2000/svg" p-id="8441" xmlns:xlink="http://www.w3.org/1999/xlink" width="162" height="162"><path d="M181.571813 130.017339S154.968223 279.435904 157.946254 368.155929c0 0 5.387097 190.799418 108.699246 278.71341 0 0 102.677709 102.932839 244.324946 113.869595 0 0-80.223945-344.383613-167.243851-429.944984 0 0 199.338396 222.322741 201.113022 379.541985 0 0 102.702544-289.997866-140.150319-479.029431 0-0.002258-116.242536-98.487243-223.117485-101.289165z" fill="#91B85B" p-id="8442"></path><path d="M796.872673 327.59014c-78.930229-13.027473-178.24834 42.934215-178.24834 42.934215-23.438162 11.952763-43.638647 25.537911-61.089139 40.197769a305.526974 305.526974 0 0 1 39.583649 91.883194 1000.340574 1000.340574 0 0 1 43.674772-37.937716c-13.332275 12.216925-27.314795 29.071359-41.279252 48.492904a307.473193 307.473193 0 0 1 6.366979 72.723553c-1.779142 56.937055-18.979018 109.755894-47.440772 154.604718 63.812039-13.65514 108.929541-44.275345 108.929541-44.275345 88.322653-50.0124 119.222825-189.453773 119.222825-189.453772 14.707272-64.780632 10.279737-179.16952 10.279737-179.16952z" fill="#91B85B" p-id="8443"></path><path d="M998.080522 588.658888h-121.86896c-70.662186 117.470777-226.847361 199.123905-408.18662 199.123905-181.334744 0-337.522177-81.653129-408.184363-199.123905H25.921736c72.791286 131.381047 215.601288 228.590378 386.979159 256.011289l-15.813591 49.314742h228.168171l-13.822217-49.371187c171.228857-27.490903 313.903391-124.661851 386.647264-255.954844z" fill="#96693A" p-id="8444"></path></svg>